<?xml version="1.0" encoding="UTF-8" standalone="no"?>
<!-- Created with Inkscape (http://www.inkscape.org/) -->

<svg
   width="34.137466mm"
   height="34.137466mm"
   viewBox="0 0 34.137466 34.137466"
   version="1.1"
   id="svg5"
   inkscape:version="1.2.1 (1:1.2.1+202210291243+9c6d41e410)"
   sodipodi:docname="dot-operator-circle.svg"
   xmlns:inkscape="http://www.inkscape.org/namespaces/inkscape"
   xmlns:sodipodi="http://sodipodi.sourceforge.net/DTD/sodipodi-0.dtd"
   xmlns="http://www.w3.org/2000/svg"
   xmlns:svg="http://www.w3.org/2000/svg">
  <sodipodi:namedview
     id="namedview7"
     pagecolor="#ffffff"
     bordercolor="#000000"
     borderopacity="0.25"
     inkscape:showpageshadow="2"
     inkscape:pageopacity="0.0"
     inkscape:pagecheckerboard="0"
     inkscape:deskcolor="#d1d1d1"
     inkscape:document-units="mm"
     showgrid="false"
     inkscape:zoom="3.9837705"
     inkscape:cx="64.511748"
     inkscape:cy="64.511748"
     inkscape:window-width="1366"
     inkscape:window-height="717"
     inkscape:window-x="0"
     inkscape:window-y="25"
     inkscape:window-maximized="1"
     inkscape:current-layer="layer1" />
  <defs
     id="defs2" />
  <g
     inkscape:label="Layer 1"
     inkscape:groupmode="layer"
     id="layer1"
     transform="translate(-42.595831,-29.98579)">
    <path
       id="rect446"
       style="fill:#784421;stroke:#000000;stroke-width:2.00153"
       d="m 43.858123,30.986555 h 31.612882 c 0.144886,0 0.261528,0.116641 0.261528,0.261527 v 31.612883 c 0,0.144886 -0.116642,0.261527 -0.261528,0.261527 H 43.858123 c -0.144886,0 -0.261527,-0.116641 -0.261527,-0.261527 V 31.248082 c 0,-0.144886 0.116641,-0.261527 0.261527,-0.261527 z" />
    <path
       id="path234"
       style="fill:#d40000;stroke:#000000;stroke-width:2.523"
       d="M 70.362822,45.956581 A 10.305937,10.305937 0 0 1 60.056885,56.262518 10.305937,10.305937 0 0 1 49.750948,45.956581 10.305937,10.305937 0 0 1 60.056885,35.650644 10.305937,10.305937 0 0 1 70.362822,45.956581 Z" />
  </g>
</svg>
