<?xml version="1.0" encoding="UTF-8" standalone="no"?>
<!-- Created with Inkscape (http://www.inkscape.org/) -->

<svg
   width="193.86525mm"
   height="168.01985mm"
   viewBox="0 0 193.86525 168.01985"
   version="1.1"
   id="svg5"
   inkscape:version="1.2.1 (1:1.2.1+202210291243+9c6d41e410)"
   sodipodi:docname="std-io.svg"
   xmlns:inkscape="http://www.inkscape.org/namespaces/inkscape"
   xmlns:sodipodi="http://sodipodi.sourceforge.net/DTD/sodipodi-0.dtd"
   xmlns="http://www.w3.org/2000/svg"
   xmlns:svg="http://www.w3.org/2000/svg">
  <sodipodi:namedview
     id="namedview7"
     pagecolor="#ffffff"
     bordercolor="#000000"
     borderopacity="0.25"
     inkscape:showpageshadow="2"
     inkscape:pageopacity="0.0"
     inkscape:pagecheckerboard="0"
     inkscape:deskcolor="#d1d1d1"
     inkscape:document-units="mm"
     showgrid="false"
     inkscape:zoom="0.80940336"
     inkscape:cx="366.93695"
     inkscape:cy="317.51783"
     inkscape:window-width="1366"
     inkscape:window-height="717"
     inkscape:window-x="0"
     inkscape:window-y="25"
     inkscape:window-maximized="1"
     inkscape:current-layer="layer1" />
  <defs
     id="defs2">
    <filter
       style="color-interpolation-filters:sRGB"
       inkscape:label="Brilliance"
       id="filter2435"
       x="0"
       y="0"
       width="1"
       height="1">
      <feColorMatrix
         values="2 -0.5 -0.5 0 0 -0.5 2 -0.5 0 0 -0.5 -0.5 2 0 0 0 0 0 1 0 "
         id="feColorMatrix2433" />
    </filter>
  </defs>
  <g
     inkscape:label="Layer 1"
     inkscape:groupmode="layer"
     id="layer1"
     transform="translate(52.701538,-44.076847)">
    <rect
       style="fill:#ffccaa;fill-opacity:1;stroke:none;stroke-width:0.986879;stroke-dasharray:none"
       id="rect4513"
       width="193.86525"
       height="168.01985"
       x="-52.701538"
       y="44.076847"
       ry="0" />
    <g
       id="g3477"
       transform="rotate(-4.056998,296.3755,892.12553)">
      <path
         style="color:#000000;fill:#000000;fill-opacity:1;-inkscape-stroke:none"
         d="m 118.38977,51.841533 c -12.10665,0 -22.146484,10.039838 -22.146484,22.146485 v 45.253912 c 0,12.10664 10.039824,22.14648 22.146484,22.14648 H 136.63 c 12.10665,0 22.14649,-10.03984 22.14649,-22.14648 V 73.988018 c 0,-12.106646 -10.03984,-22.146485 -22.14649,-22.146485 z m 0,18.822266 H 136.63 c 2.0043,0 3.32227,1.319918 3.32227,3.324219 v 45.253912 c 0,2.0043 -1.31797,3.32421 -3.32227,3.32421 h -18.24023 c -2.0043,0 -3.32422,-1.31992 -3.32422,-3.32421 V 73.988018 c 0,-2.0043 1.31992,-3.324219 3.32422,-3.324219 z"
         id="path3466" />
      <path
         style="color:#000000;fill:#ff4000;fill-opacity:1;-inkscape-stroke:none"
         d="m 115.22322,49.05679 c -12.10665,0 -22.146488,10.039838 -22.146488,22.146485 v 45.253915 c 0,12.10664 10.039828,22.14648 22.146488,22.14648 h 18.24023 c 12.10665,0 22.14649,-10.03984 22.14649,-22.14648 V 71.203275 c 0,-12.106646 -10.03984,-22.146485 -22.14649,-22.146485 z m 0,18.822266 h 18.24023 c 2.0043,0 3.32227,1.319918 3.32227,3.324219 v 45.253915 c 0,2.0043 -1.31797,3.32421 -3.32227,3.32421 h -18.24023 c -2.0043,0 -3.32422,-1.31992 -3.32422,-3.32421 V 71.203275 c 0,-2.0043 1.31992,-3.324219 3.32422,-3.324219 z"
         id="path1004" />
      <g
         id="g3281"
         transform="translate(-17.636171,-109.8179)">
        <g
           aria-label=":io"
           id="g3273"
           style="font-weight:bold;font-size:50.8px;font-family:Arial;-inkscape-font-specification:'Arial Bold';fill:#ffffff"
           transform="translate(-7.9340225,-53.526015)">
          <path
             id="path3271"
             d="m 168.87097,222.57294 q 0,-3.47265 1.71152,-6.72207 1.71152,-3.24941 4.83691,-4.96093 3.1502,-1.71153 7.01973,-1.71153 5.97793,0 9.79785,3.89434 3.81992,3.86953 3.81992,9.79785 0,5.97793 -3.86953,9.92187 -3.84472,3.91914 -9.69863,3.91914 -3.62148,0 -6.92051,-1.6371 -3.27422,-1.63711 -4.98574,-4.78731 -1.71152,-3.175 -1.71152,-7.71426 z m 7.14375,0.37207 q 0,3.91914 1.86035,6.00274 1.86035,2.08359 4.58887,2.08359 2.72851,0 4.56406,-2.08359 1.86035,-2.0836 1.86035,-6.05235 0,-3.86953 -1.86035,-5.95312 -1.83555,-2.08359 -4.56406,-2.08359 -2.72852,0 -4.58887,2.08359 -1.86035,2.08359 -1.86035,6.00273 z M 156.3694,206.20185 v -6.44922 h 6.97012 v 6.44922 z m 0,29.91445 v -26.34258 h 6.97012 v 26.34258 z m -15.57734,-19.37246 v -6.97012 h 6.97012 v 6.97012 z m 0,19.37246 v -6.97011 h 6.97012 v 6.97011 z"
             style="fill:#ffffff" />
        </g>
        <g
           aria-label=":io"
           id="g3269"
           style="font-weight:bold;font-size:50.8px;font-family:Arial;-inkscape-font-specification:'Arial Bold';fill:#000000"
           transform="translate(-9.2713473,-54.713036)">
          <path
             id="path3267"
             d="m 168.87097,222.57294 q 0,-3.47265 1.71152,-6.72207 1.71152,-3.24941 4.83691,-4.96093 3.1502,-1.71153 7.01973,-1.71153 5.97793,0 9.79785,3.89434 3.81992,3.86953 3.81992,9.79785 0,5.97793 -3.86953,9.92187 -3.84472,3.91914 -9.69863,3.91914 -3.62148,0 -6.92051,-1.6371 -3.27422,-1.63711 -4.98574,-4.78731 -1.71152,-3.175 -1.71152,-7.71426 z m 7.14375,0.37207 q 0,3.91914 1.86035,6.00274 1.86035,2.08359 4.58887,2.08359 2.72851,0 4.56406,-2.08359 1.86035,-2.0836 1.86035,-6.05235 0,-3.86953 -1.86035,-5.95312 -1.83555,-2.08359 -4.56406,-2.08359 -2.72852,0 -4.58887,2.08359 -1.86035,2.08359 -1.86035,6.00273 z M 156.3694,206.20185 v -6.44922 h 6.97012 v 6.44922 z m 0,29.91445 v -26.34258 h 6.97012 v 26.34258 z m -15.57734,-19.37246 v -6.97012 h 6.97012 v 6.97012 z m 0,19.37246 v -6.97011 h 6.97012 v 6.97011 z"
             style="fill:#000000" />
        </g>
        <g
           aria-label=":io"
           id="g2015"
           style="font-weight:bold;font-size:50.8px;font-family:Arial;-inkscape-font-specification:'Arial Bold';fill:#800080"
           transform="translate(-11.082346,-56.589122)">
          <path
             id="path2013"
             d="m 168.87097,222.57294 q 0,-3.47265 1.71152,-6.72207 1.71152,-3.24941 4.83691,-4.96093 3.1502,-1.71153 7.01973,-1.71153 5.97793,0 9.79785,3.89434 3.81992,3.86953 3.81992,9.79785 0,5.97793 -3.86953,9.92187 -3.84472,3.91914 -9.69863,3.91914 -3.62148,0 -6.92051,-1.6371 -3.27422,-1.63711 -4.98574,-4.78731 -1.71152,-3.175 -1.71152,-7.71426 z m 7.14375,0.37207 q 0,3.91914 1.86035,6.00274 1.86035,2.08359 4.58887,2.08359 2.72851,0 4.56406,-2.08359 1.86035,-2.0836 1.86035,-6.05235 0,-3.86953 -1.86035,-5.95312 -1.83555,-2.08359 -4.56406,-2.08359 -2.72852,0 -4.58887,2.08359 -1.86035,2.08359 -1.86035,6.00273 z M 156.3694,206.20185 v -6.44922 h 6.97012 v 6.44922 z m 0,29.91445 v -26.34258 h 6.97012 v 26.34258 z m -15.57734,-19.37246 v -6.97012 h 6.97012 v 6.97012 z m 0,19.37246 v -6.97011 h 6.97012 v 6.97011 z"
             style="fill:#800080" />
        </g>
      </g>
    </g>
    <g
       id="g3426"
       transform="matrix(0.92516998,-0.59222246,0.59222246,0.92516998,-86.877071,27.669264)">
      <path
         style="color:#000000;fill:#000000;fill-opacity:1;-inkscape-stroke:none;filter:url(#filter2435)"
         d="m 43.626182,115.88535 c -12.106646,0 -22.146484,10.03983 -22.146484,22.14648 v 45.25391 c 0,12.10664 10.039832,22.14648 22.146484,22.14648 h 18.240234 c 12.106653,0 22.146485,-10.03984 22.146485,-22.14648 v -45.25391 c 0,-12.10665 -10.039838,-22.14648 -22.146485,-22.14648 z m 0,18.82226 h 18.240234 c 2.004302,0 3.322266,1.31992 3.322266,3.32422 v 45.25391 c 0,2.0043 -1.31797,3.32421 -3.322266,3.32421 H 43.626182 c -2.004294,0 -3.324219,-1.31992 -3.324219,-3.32421 v -45.25391 c 0,-2.0043 1.31992,-3.32422 3.324219,-3.32422 z"
         id="path3386" />
      <path
         style="color:#000000;fill:#d45500;fill-opacity:1;-inkscape-stroke:none;filter:url(#filter2435)"
         d="m 41.58688,113.42282 c -12.106646,0 -22.146484,10.03983 -22.146484,22.14648 v 45.25391 c 0,12.10664 10.039832,22.14648 22.146484,22.14648 h 18.240234 c 12.106653,0 22.146485,-10.03984 22.146485,-22.14648 V 135.5693 c 0,-12.10665 -10.039838,-22.14648 -22.146485,-22.14648 z m 0,18.82226 h 18.240234 c 2.004302,0 3.322266,1.31992 3.322266,3.32422 v 45.25391 c 0,2.0043 -1.31797,3.32421 -3.322266,3.32421 H 41.58688 c -2.004294,0 -3.324219,-1.31992 -3.324219,-3.32421 V 135.5693 c 0,-2.0043 1.31992,-3.32422 3.324219,-3.32422 z"
         id="rect288" />
      <g
         id="g3210"
         transform="translate(-24.678091,-25.876115)">
        <g
           aria-label="std:"
           id="g3202"
           style="font-weight:bold;font-size:50.8px;font-family:Arial;-inkscape-font-specification:'Arial Bold';fill:#000000;stroke:#000000"
           transform="translate(-41.060484,-87.902593)">
          <path
             id="path3200"
             style="fill:#000000;stroke:none"
             d="m 122.75344,218.87321 v -6.97012 h 6.97012 v 6.97012 z m 0,19.37246 v -6.97012 h 6.97012 v 6.97012 z m -8.21035,0 h -6.47403 v -3.86953 q -1.6123,2.25722 -3.81992,3.37343 -2.18281,1.09141 -4.415231,1.09141 -4.539258,0 -7.788672,-3.64629 -3.224609,-3.67109 -3.224609,-10.21953 0,-6.69727 3.150195,-10.16992 3.150195,-3.49746 7.962304,-3.49746 4.415233,0 7.639843,3.67109 V 201.882 h 6.97012 z m -18.603517,-13.7418 q 0,4.2168 1.16582,6.10195 1.686719,2.72852 4.712887,2.72852 2.40606,0 4.09278,-2.03399 1.68672,-2.05878 1.68672,-6.12675 0,-4.53926 -1.63711,-6.52364 -1.63711,-2.00918 -4.192,-2.00918 -2.480464,0 -4.167183,1.98438 -1.661914,1.95957 -1.661914,5.87871 z M 85.54641,211.90309 v 5.55625 h -4.7625 v 10.6164 q 0,3.22461 0.124023,3.77032 0.148828,0.5209 0.620117,0.86816 0.496094,0.34727 1.190625,0.34727 0.967383,0 2.80293,-0.66973 l 0.595313,5.40742 q -2.43086,1.0418 -5.506641,1.0418 -1.885156,0 -3.398242,-0.62012 -1.513086,-0.64492 -2.232422,-1.63711 -0.694531,-1.01699 -0.967383,-2.72851 -0.223242,-1.21543 -0.223242,-4.91133 v -11.48457 h -3.199805 v -5.55625 h 3.199805 v -5.23379 l 6.994922,-4.06797 v 9.30176 z m -42.788086,18.82676 6.994922,-1.06661 q 0.446485,2.03399 1.810742,3.10059 1.364258,1.0418 3.819922,1.0418 2.703711,0 4.067969,-0.99219 0.917773,-0.69453 0.917773,-1.86035 0,-0.79375 -0.496093,-1.31465 -0.520899,-0.49609 -2.331641,-0.91777 -8.433594,-1.86035 -10.69082,-3.39825 -3.125391,-2.1332 -3.125391,-5.92832 0,-3.42304 2.703711,-5.75468 2.703711,-2.33164 8.383984,-2.33164 5.407422,0 8.036719,1.76113 2.629297,1.76113 3.621484,5.20898 l -6.573242,1.21543 q -0.421679,-1.53789 -1.612304,-2.35644 -1.165821,-0.81856 -3.348633,-0.81856 -2.75332,0 -3.943945,0.76895 -0.79375,0.5457 -0.79375,1.41387 0,0.74414 0.694531,1.26503 0.942578,0.69454 6.498828,1.95957 5.581054,1.26504 7.788672,3.10059 2.182812,1.86035 2.182812,5.18418 0,3.62148 -3.026172,6.22598 -3.026172,2.60449 -8.954492,2.60449 -5.382617,0 -8.532812,-2.18281 -3.125391,-2.18282 -4.092774,-5.92832 z" />
        </g>
        <g
           aria-label="std:"
           id="g3198"
           style="font-weight:bold;font-size:50.8px;font-family:Arial;-inkscape-font-specification:'Arial Bold';fill:#ffffff;stroke:#000000"
           transform="translate(-42.349664,-89.714255)">
          <path
             id="path3196"
             style="fill:#ffffff;stroke:none"
             d="m 122.75344,218.87321 v -6.97012 h 6.97012 v 6.97012 z m 0,19.37246 v -6.97012 h 6.97012 v 6.97012 z m -8.21035,0 h -6.47403 v -3.86953 q -1.6123,2.25722 -3.81992,3.37343 -2.18281,1.09141 -4.415231,1.09141 -4.539258,0 -7.788672,-3.64629 -3.224609,-3.67109 -3.224609,-10.21953 0,-6.69727 3.150195,-10.16992 3.150195,-3.49746 7.962304,-3.49746 4.415233,0 7.639843,3.67109 V 201.882 h 6.97012 z m -18.603517,-13.7418 q 0,4.2168 1.16582,6.10195 1.686719,2.72852 4.712887,2.72852 2.40606,0 4.09278,-2.03399 1.68672,-2.05878 1.68672,-6.12675 0,-4.53926 -1.63711,-6.52364 -1.63711,-2.00918 -4.192,-2.00918 -2.480464,0 -4.167183,1.98438 -1.661914,1.95957 -1.661914,5.87871 z M 85.54641,211.90309 v 5.55625 h -4.7625 v 10.6164 q 0,3.22461 0.124023,3.77032 0.148828,0.5209 0.620117,0.86816 0.496094,0.34727 1.190625,0.34727 0.967383,0 2.80293,-0.66973 l 0.595313,5.40742 q -2.43086,1.0418 -5.506641,1.0418 -1.885156,0 -3.398242,-0.62012 -1.513086,-0.64492 -2.232422,-1.63711 -0.694531,-1.01699 -0.967383,-2.72851 -0.223242,-1.21543 -0.223242,-4.91133 v -11.48457 h -3.199805 v -5.55625 h 3.199805 v -5.23379 l 6.994922,-4.06797 v 9.30176 z m -42.788086,18.82676 6.994922,-1.06661 q 0.446485,2.03399 1.810742,3.10059 1.364258,1.0418 3.819922,1.0418 2.703711,0 4.067969,-0.99219 0.917773,-0.69453 0.917773,-1.86035 0,-0.79375 -0.496093,-1.31465 -0.520899,-0.49609 -2.331641,-0.91777 -8.433594,-1.86035 -10.69082,-3.39825 -3.125391,-2.1332 -3.125391,-5.92832 0,-3.42304 2.703711,-5.75468 2.703711,-2.33164 8.383984,-2.33164 5.407422,0 8.036719,1.76113 2.629297,1.76113 3.621484,5.20898 l -6.573242,1.21543 q -0.421679,-1.53789 -1.612304,-2.35644 -1.165821,-0.81856 -3.348633,-0.81856 -2.75332,0 -3.943945,0.76895 -0.79375,0.5457 -0.79375,1.41387 0,0.74414 0.694531,1.26503 0.942578,0.69454 6.498828,1.95957 5.581054,1.26504 7.788672,3.10059 2.182812,1.86035 2.182812,5.18418 0,3.62148 -3.026172,6.22598 -3.026172,2.60449 -8.954492,2.60449 -5.382617,0 -8.532812,-2.18281 -3.125391,-2.18282 -4.092774,-5.92832 z" />
        </g>
        <g
           aria-label="std:"
           id="g2011"
           style="font-weight:bold;font-size:50.8px;font-family:Arial;-inkscape-font-specification:'Arial Bold';fill:#800080;stroke:#000000"
           transform="translate(-43.129068,-91.696247)">
          <path
             id="path2009"
             style="fill:#800080;stroke:none"
             d="m 122.75344,218.87321 v -6.97012 h 6.97012 v 6.97012 z m 0,19.37246 v -6.97012 h 6.97012 v 6.97012 z m -8.21035,0 h -6.47403 v -3.86953 q -1.6123,2.25722 -3.81992,3.37343 -2.18281,1.09141 -4.415231,1.09141 -4.539258,0 -7.788672,-3.64629 -3.224609,-3.67109 -3.224609,-10.21953 0,-6.69727 3.150195,-10.16992 3.150195,-3.49746 7.962304,-3.49746 4.415233,0 7.639843,3.67109 V 201.882 h 6.97012 z m -18.603517,-13.7418 q 0,4.2168 1.16582,6.10195 1.686719,2.72852 4.712887,2.72852 2.40606,0 4.09278,-2.03399 1.68672,-2.05878 1.68672,-6.12675 0,-4.53926 -1.63711,-6.52364 -1.63711,-2.00918 -4.192,-2.00918 -2.480464,0 -4.167183,1.98438 -1.661914,1.95957 -1.661914,5.87871 z M 85.54641,211.90309 v 5.55625 h -4.7625 v 10.6164 q 0,3.22461 0.124023,3.77032 0.148828,0.5209 0.620117,0.86816 0.496094,0.34727 1.190625,0.34727 0.967383,0 2.80293,-0.66973 l 0.595313,5.40742 q -2.43086,1.0418 -5.506641,1.0418 -1.885156,0 -3.398242,-0.62012 -1.513086,-0.64492 -2.232422,-1.63711 -0.694531,-1.01699 -0.967383,-2.72851 -0.223242,-1.21543 -0.223242,-4.91133 v -11.48457 h -3.199805 v -5.55625 h 3.199805 v -5.23379 l 6.994922,-4.06797 v 9.30176 z m -42.788086,18.82676 6.994922,-1.06661 q 0.446485,2.03399 1.810742,3.10059 1.364258,1.0418 3.819922,1.0418 2.703711,0 4.067969,-0.99219 0.917773,-0.69453 0.917773,-1.86035 0,-0.79375 -0.496093,-1.31465 -0.520899,-0.49609 -2.331641,-0.91777 -8.433594,-1.86035 -10.69082,-3.39825 -3.125391,-2.1332 -3.125391,-5.92832 0,-3.42304 2.703711,-5.75468 2.703711,-2.33164 8.383984,-2.33164 5.407422,0 8.036719,1.76113 2.629297,1.76113 3.621484,5.20898 l -6.573242,1.21543 q -0.421679,-1.53789 -1.612304,-2.35644 -1.165821,-0.81856 -3.348633,-0.81856 -2.75332,0 -3.943945,0.76895 -0.79375,0.5457 -0.79375,1.41387 0,0.74414 0.694531,1.26503 0.942578,0.69454 6.498828,1.95957 5.581054,1.26504 7.788672,3.10059 2.182812,1.86035 2.182812,5.18418 0,3.62148 -3.026172,6.22598 -3.026172,2.60449 -8.954492,2.60449 -5.382617,0 -8.532812,-2.18281 -3.125391,-2.18282 -4.092774,-5.92832 z" />
        </g>
      </g>
    </g>
    <g
       id="g3607"
       transform="translate(-45.084263,-48.023178)">
      <g
         id="g1996"
         transform="translate(-9.3908203,18.585394)">
        <g
           aria-label="std:"
           id="text1114"
           style="font-weight:bold;font-size:50.8px;font-family:Arial;-inkscape-font-specification:'Arial Bold';fill:none;stroke:#000000">
          <path
             id="path1134"
             style="fill:#000000;stroke:none"
             d="m 122.75344,218.87321 v -6.97012 h 6.97012 v 6.97012 z m 0,19.37246 v -6.97012 h 6.97012 v 6.97012 z m -8.21035,0 h -6.47403 v -3.86953 q -1.6123,2.25722 -3.81992,3.37343 -2.18281,1.09141 -4.415231,1.09141 -4.539258,0 -7.788672,-3.64629 -3.224609,-3.67109 -3.224609,-10.21953 0,-6.69727 3.150195,-10.16992 3.150195,-3.49746 7.962304,-3.49746 4.415233,0 7.639843,3.67109 V 201.882 h 6.97012 z m -18.603517,-13.7418 q 0,4.2168 1.16582,6.10195 1.686719,2.72852 4.712887,2.72852 2.40606,0 4.09278,-2.03399 1.68672,-2.05878 1.68672,-6.12675 0,-4.53926 -1.63711,-6.52364 -1.63711,-2.00918 -4.192,-2.00918 -2.480464,0 -4.167183,1.98438 -1.661914,1.95957 -1.661914,5.87871 z M 85.54641,211.90309 v 5.55625 h -4.7625 v 10.6164 q 0,3.22461 0.124023,3.77032 0.148828,0.5209 0.620117,0.86816 0.496094,0.34727 1.190625,0.34727 0.967383,0 2.80293,-0.66973 l 0.595313,5.40742 q -2.43086,1.0418 -5.506641,1.0418 -1.885156,0 -3.398242,-0.62012 -1.513086,-0.64492 -2.232422,-1.63711 -0.694531,-1.01699 -0.967383,-2.72851 -0.223242,-1.21543 -0.223242,-4.91133 v -11.48457 h -3.199805 v -5.55625 h 3.199805 v -5.23379 l 6.994922,-4.06797 v 9.30176 z m -42.788086,18.82676 6.994922,-1.06661 q 0.446485,2.03399 1.810742,3.10059 1.364258,1.0418 3.819922,1.0418 2.703711,0 4.067969,-0.99219 0.917773,-0.69453 0.917773,-1.86035 0,-0.79375 -0.496093,-1.31465 -0.520899,-0.49609 -2.331641,-0.91777 -8.433594,-1.86035 -10.69082,-3.39825 -3.125391,-2.1332 -3.125391,-5.92832 0,-3.42304 2.703711,-5.75468 2.703711,-2.33164 8.383984,-2.33164 5.407422,0 8.036719,1.76113 2.629297,1.76113 3.621484,5.20898 l -6.573242,1.21543 q -0.421679,-1.53789 -1.612304,-2.35644 -1.165821,-0.81856 -3.348633,-0.81856 -2.75332,0 -3.943945,0.76895 -0.79375,0.5457 -0.79375,1.41387 0,0.74414 0.694531,1.26503 0.942578,0.69454 6.498828,1.95957 5.581054,1.26504 7.788672,3.10059 2.182812,1.86035 2.182812,5.18418 0,3.62148 -3.026172,6.22598 -3.026172,2.60449 -8.954492,2.60449 -5.382617,0 -8.532812,-2.18281 -3.125391,-2.18282 -4.092774,-5.92832 z" />
        </g>
        <g
           aria-label=":io"
           id="text1947"
           style="font-weight:bold;font-size:50.8px;font-family:Arial;-inkscape-font-specification:'Arial Bold'"
           transform="translate(-3.8889404,2.2275269)">
          <path
             id="path1963"
             d="m 168.87097,222.57294 q 0,-3.47265 1.71152,-6.72207 1.71152,-3.24941 4.83691,-4.96093 3.1502,-1.71153 7.01973,-1.71153 5.97793,0 9.79785,3.89434 3.81992,3.86953 3.81992,9.79785 0,5.97793 -3.86953,9.92187 -3.84472,3.91914 -9.69863,3.91914 -3.62148,0 -6.92051,-1.6371 -3.27422,-1.63711 -4.98574,-4.78731 -1.71152,-3.175 -1.71152,-7.71426 z m 7.14375,0.37207 q 0,3.91914 1.86035,6.00274 1.86035,2.08359 4.58887,2.08359 2.72851,0 4.56406,-2.08359 1.86035,-2.0836 1.86035,-6.05235 0,-3.86953 -1.86035,-5.95312 -1.83555,-2.08359 -4.56406,-2.08359 -2.72852,0 -4.58887,2.08359 -1.86035,2.08359 -1.86035,6.00273 z M 156.3694,206.20185 v -6.44922 h 6.97012 v 6.44922 z m 0,29.91445 v -26.34258 h 6.97012 v 26.34258 z m -15.57734,-19.37246 v -6.97012 h 6.97012 v 6.97012 z m 0,19.37246 v -6.97011 h 6.97012 v 6.97011 z" />
        </g>
      </g>
      <g
         id="g3590"
         transform="translate(-10.097958,16.962182)"
         style="fill:#ffffff">
        <g
           aria-label="std:"
           id="g3584"
           style="font-weight:bold;font-size:50.8px;font-family:Arial;-inkscape-font-specification:'Arial Bold';fill:#ffffff;stroke:#000000">
          <path
             id="path3582"
             style="fill:#ffffff;stroke:none"
             d="m 122.75344,218.87321 v -6.97012 h 6.97012 v 6.97012 z m 0,19.37246 v -6.97012 h 6.97012 v 6.97012 z m -8.21035,0 h -6.47403 v -3.86953 q -1.6123,2.25722 -3.81992,3.37343 -2.18281,1.09141 -4.415231,1.09141 -4.539258,0 -7.788672,-3.64629 -3.224609,-3.67109 -3.224609,-10.21953 0,-6.69727 3.150195,-10.16992 3.150195,-3.49746 7.962304,-3.49746 4.415233,0 7.639843,3.67109 V 201.882 h 6.97012 z m -18.603517,-13.7418 q 0,4.2168 1.16582,6.10195 1.686719,2.72852 4.712887,2.72852 2.40606,0 4.09278,-2.03399 1.68672,-2.05878 1.68672,-6.12675 0,-4.53926 -1.63711,-6.52364 -1.63711,-2.00918 -4.192,-2.00918 -2.480464,0 -4.167183,1.98438 -1.661914,1.95957 -1.661914,5.87871 z M 85.54641,211.90309 v 5.55625 h -4.7625 v 10.6164 q 0,3.22461 0.124023,3.77032 0.148828,0.5209 0.620117,0.86816 0.496094,0.34727 1.190625,0.34727 0.967383,0 2.80293,-0.66973 l 0.595313,5.40742 q -2.43086,1.0418 -5.506641,1.0418 -1.885156,0 -3.398242,-0.62012 -1.513086,-0.64492 -2.232422,-1.63711 -0.694531,-1.01699 -0.967383,-2.72851 -0.223242,-1.21543 -0.223242,-4.91133 v -11.48457 h -3.199805 v -5.55625 h 3.199805 v -5.23379 l 6.994922,-4.06797 v 9.30176 z m -42.788086,18.82676 6.994922,-1.06661 q 0.446485,2.03399 1.810742,3.10059 1.364258,1.0418 3.819922,1.0418 2.703711,0 4.067969,-0.99219 0.917773,-0.69453 0.917773,-1.86035 0,-0.79375 -0.496093,-1.31465 -0.520899,-0.49609 -2.331641,-0.91777 -8.433594,-1.86035 -10.69082,-3.39825 -3.125391,-2.1332 -3.125391,-5.92832 0,-3.42304 2.703711,-5.75468 2.703711,-2.33164 8.383984,-2.33164 5.407422,0 8.036719,1.76113 2.629297,1.76113 3.621484,5.20898 l -6.573242,1.21543 q -0.421679,-1.53789 -1.612304,-2.35644 -1.165821,-0.81856 -3.348633,-0.81856 -2.75332,0 -3.943945,0.76895 -0.79375,0.5457 -0.79375,1.41387 0,0.74414 0.694531,1.26503 0.942578,0.69454 6.498828,1.95957 5.581054,1.26504 7.788672,3.10059 2.182812,1.86035 2.182812,5.18418 0,3.62148 -3.026172,6.22598 -3.026172,2.60449 -8.954492,2.60449 -5.382617,0 -8.532812,-2.18281 -3.125391,-2.18282 -4.092774,-5.92832 z" />
        </g>
        <g
           aria-label=":io"
           id="g3588"
           style="font-weight:bold;font-size:50.8px;font-family:Arial;-inkscape-font-specification:'Arial Bold';fill:#ffffff"
           transform="translate(-3.8889404,2.2275269)">
          <path
             id="path3586"
             d="m 168.87097,222.57294 q 0,-3.47265 1.71152,-6.72207 1.71152,-3.24941 4.83691,-4.96093 3.1502,-1.71153 7.01973,-1.71153 5.97793,0 9.79785,3.89434 3.81992,3.86953 3.81992,9.79785 0,5.97793 -3.86953,9.92187 -3.84472,3.91914 -9.69863,3.91914 -3.62148,0 -6.92051,-1.6371 -3.27422,-1.63711 -4.98574,-4.78731 -1.71152,-3.175 -1.71152,-7.71426 z m 7.14375,0.37207 q 0,3.91914 1.86035,6.00274 1.86035,2.08359 4.58887,2.08359 2.72851,0 4.56406,-2.08359 1.86035,-2.0836 1.86035,-6.05235 0,-3.86953 -1.86035,-5.95312 -1.83555,-2.08359 -4.56406,-2.08359 -2.72852,0 -4.58887,2.08359 -1.86035,2.08359 -1.86035,6.00273 z M 156.3694,206.20185 v -6.44922 h 6.97012 v 6.44922 z m 0,29.91445 v -26.34258 h 6.97012 v 26.34258 z m -15.57734,-19.37246 v -6.97012 h 6.97012 v 6.97012 z m 0,19.37246 v -6.97011 h 6.97012 v 6.97011 z"
             style="fill:#ffffff" />
        </g>
      </g>
      <g
         id="g3580"
         transform="translate(-10.554196,15.605903)"
         style="fill:#800080">
        <g
           aria-label="std:"
           id="g3574"
           style="font-weight:bold;font-size:50.8px;font-family:Arial;-inkscape-font-specification:'Arial Bold';fill:#800080;stroke:#000000">
          <path
             id="path3572"
             style="fill:#800080;stroke:none"
             d="m 122.75344,218.87321 v -6.97012 h 6.97012 v 6.97012 z m 0,19.37246 v -6.97012 h 6.97012 v 6.97012 z m -8.21035,0 h -6.47403 v -3.86953 q -1.6123,2.25722 -3.81992,3.37343 -2.18281,1.09141 -4.415231,1.09141 -4.539258,0 -7.788672,-3.64629 -3.224609,-3.67109 -3.224609,-10.21953 0,-6.69727 3.150195,-10.16992 3.150195,-3.49746 7.962304,-3.49746 4.415233,0 7.639843,3.67109 V 201.882 h 6.97012 z m -18.603517,-13.7418 q 0,4.2168 1.16582,6.10195 1.686719,2.72852 4.712887,2.72852 2.40606,0 4.09278,-2.03399 1.68672,-2.05878 1.68672,-6.12675 0,-4.53926 -1.63711,-6.52364 -1.63711,-2.00918 -4.192,-2.00918 -2.480464,0 -4.167183,1.98438 -1.661914,1.95957 -1.661914,5.87871 z M 85.54641,211.90309 v 5.55625 h -4.7625 v 10.6164 q 0,3.22461 0.124023,3.77032 0.148828,0.5209 0.620117,0.86816 0.496094,0.34727 1.190625,0.34727 0.967383,0 2.80293,-0.66973 l 0.595313,5.40742 q -2.43086,1.0418 -5.506641,1.0418 -1.885156,0 -3.398242,-0.62012 -1.513086,-0.64492 -2.232422,-1.63711 -0.694531,-1.01699 -0.967383,-2.72851 -0.223242,-1.21543 -0.223242,-4.91133 v -11.48457 h -3.199805 v -5.55625 h 3.199805 v -5.23379 l 6.994922,-4.06797 v 9.30176 z m -42.788086,18.82676 6.994922,-1.06661 q 0.446485,2.03399 1.810742,3.10059 1.364258,1.0418 3.819922,1.0418 2.703711,0 4.067969,-0.99219 0.917773,-0.69453 0.917773,-1.86035 0,-0.79375 -0.496093,-1.31465 -0.520899,-0.49609 -2.331641,-0.91777 -8.433594,-1.86035 -10.69082,-3.39825 -3.125391,-2.1332 -3.125391,-5.92832 0,-3.42304 2.703711,-5.75468 2.703711,-2.33164 8.383984,-2.33164 5.407422,0 8.036719,1.76113 2.629297,1.76113 3.621484,5.20898 l -6.573242,1.21543 q -0.421679,-1.53789 -1.612304,-2.35644 -1.165821,-0.81856 -3.348633,-0.81856 -2.75332,0 -3.943945,0.76895 -0.79375,0.5457 -0.79375,1.41387 0,0.74414 0.694531,1.26503 0.942578,0.69454 6.498828,1.95957 5.581054,1.26504 7.788672,3.10059 2.182812,1.86035 2.182812,5.18418 0,3.62148 -3.026172,6.22598 -3.026172,2.60449 -8.954492,2.60449 -5.382617,0 -8.532812,-2.18281 -3.125391,-2.18282 -4.092774,-5.92832 z" />
        </g>
        <g
           aria-label=":io"
           id="g3578"
           style="font-weight:bold;font-size:50.8px;font-family:Arial;-inkscape-font-specification:'Arial Bold';fill:#800080"
           transform="translate(-3.8889404,2.2275269)">
          <path
             id="path3576"
             d="m 168.87097,222.57294 q 0,-3.47265 1.71152,-6.72207 1.71152,-3.24941 4.83691,-4.96093 3.1502,-1.71153 7.01973,-1.71153 5.97793,0 9.79785,3.89434 3.81992,3.86953 3.81992,9.79785 0,5.97793 -3.86953,9.92187 -3.84472,3.91914 -9.69863,3.91914 -3.62148,0 -6.92051,-1.6371 -3.27422,-1.63711 -4.98574,-4.78731 -1.71152,-3.175 -1.71152,-7.71426 z m 7.14375,0.37207 q 0,3.91914 1.86035,6.00274 1.86035,2.08359 4.58887,2.08359 2.72851,0 4.56406,-2.08359 1.86035,-2.0836 1.86035,-6.05235 0,-3.86953 -1.86035,-5.95312 -1.83555,-2.08359 -4.56406,-2.08359 -2.72852,0 -4.58887,2.08359 -1.86035,2.08359 -1.86035,6.00273 z M 156.3694,206.20185 v -6.44922 h 6.97012 v 6.44922 z m 0,29.91445 v -26.34258 h 6.97012 v 26.34258 z m -15.57734,-19.37246 v -6.97012 h 6.97012 v 6.97012 z m 0,19.37246 v -6.97011 h 6.97012 v 6.97011 z"
             style="fill:#800080" />
        </g>
      </g>
    </g>
  </g>
</svg>
